<mxfile host="65bd71144e">
    <diagram id="EtiNwLDvHgNjOWhqD99Z" name="Page-1">
        <mxGraphModel dx="820" dy="1575" grid="1" gridSize="10" guides="1" tooltips="1" connect="1" arrows="1" fold="1" page="1" pageScale="1" pageWidth="850" pageHeight="1100" math="0" shadow="0">
            <root>
                <mxCell id="0"/>
                <mxCell id="1" parent="0"/>
                <mxCell id="2" value="Actor" style="shape=umlActor;verticalLabelPosition=bottom;verticalAlign=top;html=1;outlineConnect=0;" parent="1" vertex="1">
                    <mxGeometry x="50" y="340" width="90" height="140" as="geometry"/>
                </mxCell>
                <mxCell id="8" value="" style="endArrow=classic;html=1;" parent="1" edge="1">
                    <mxGeometry width="50" height="50" relative="1" as="geometry">
                        <mxPoint x="110" y="419.5" as="sourcePoint"/>
                        <mxPoint x="240" y="419.5" as="targetPoint"/>
                    </mxGeometry>
                </mxCell>
                <mxCell id="9" value="se connecter" style="ellipse;whiteSpace=wrap;html=1;" parent="1" vertex="1">
                    <mxGeometry x="260" y="370" width="120" height="80" as="geometry"/>
                </mxCell>
                <mxCell id="10" value="" style="endArrow=none;dashed=1;html=1;dashPattern=1 3;strokeWidth=2;exitX=0.558;exitY=-0.025;exitDx=0;exitDy=0;exitPerimeter=0;" parent="1" source="9" edge="1">
                    <mxGeometry width="50" height="50" relative="1" as="geometry">
                        <mxPoint x="320" y="350" as="sourcePoint"/>
                        <mxPoint x="570" y="40" as="targetPoint"/>
                    </mxGeometry>
                </mxCell>
                <mxCell id="11" value="gerer son profil" style="ellipse;whiteSpace=wrap;html=1;aspect=fixed;" parent="1" vertex="1">
                    <mxGeometry x="580" y="-10" width="80" height="80" as="geometry"/>
                </mxCell>
                <mxCell id="12" value="s&#39;inscrire" style="ellipse;whiteSpace=wrap;html=1;aspect=fixed;" parent="1" vertex="1">
                    <mxGeometry x="590" y="80" width="80" height="80" as="geometry"/>
                </mxCell>
                <mxCell id="13" value="passer une commande" style="ellipse;whiteSpace=wrap;html=1;aspect=fixed;" parent="1" vertex="1">
                    <mxGeometry x="580" y="180" width="80" height="80" as="geometry"/>
                </mxCell>
                <mxCell id="14" value="voir les produits disponibles" style="ellipse;whiteSpace=wrap;html=1;aspect=fixed;" parent="1" vertex="1">
                    <mxGeometry x="590" y="280" width="80" height="80" as="geometry"/>
                </mxCell>
                <mxCell id="15" value="selectionner les produits" style="ellipse;whiteSpace=wrap;html=1;aspect=fixed;" parent="1" vertex="1">
                    <mxGeometry x="600" y="380" width="80" height="80" as="geometry"/>
                </mxCell>
                <mxCell id="16" value="se deconnecter" style="ellipse;whiteSpace=wrap;html=1;aspect=fixed;" parent="1" vertex="1">
                    <mxGeometry x="180" y="750" width="80" height="80" as="geometry"/>
                </mxCell>
                <mxCell id="17" value="effectuer un paiement" style="ellipse;whiteSpace=wrap;html=1;aspect=fixed;" parent="1" vertex="1">
                    <mxGeometry x="600" y="480" width="80" height="80" as="geometry"/>
                </mxCell>
                <mxCell id="18" value="ajouter les produits au panier" style="ellipse;whiteSpace=wrap;html=1;aspect=fixed;" parent="1" vertex="1">
                    <mxGeometry x="610" y="580" width="80" height="80" as="geometry"/>
                </mxCell>
                <mxCell id="19" value="suivre l&#39;etat de la commande" style="ellipse;whiteSpace=wrap;html=1;aspect=fixed;" parent="1" vertex="1">
                    <mxGeometry x="600" y="680" width="80" height="80" as="geometry"/>
                </mxCell>
                <mxCell id="20" value="envoyer message" style="ellipse;whiteSpace=wrap;html=1;aspect=fixed;" parent="1" vertex="1">
                    <mxGeometry x="460" y="770" width="80" height="80" as="geometry"/>
                </mxCell>
                <mxCell id="21" value="annuler" style="ellipse;whiteSpace=wrap;html=1;aspect=fixed;" parent="1" vertex="1">
                    <mxGeometry x="810" y="170" width="80" height="80" as="geometry"/>
                </mxCell>
                <mxCell id="22" value="annuler" style="ellipse;whiteSpace=wrap;html=1;" parent="1" vertex="1">
                    <mxGeometry x="810" y="770" width="120" height="80" as="geometry"/>
                </mxCell>
                <mxCell id="23" value="passer une commande personnalisÃ©e" style="ellipse;whiteSpace=wrap;html=1;" parent="1" vertex="1">
                    <mxGeometry x="570" y="790" width="120" height="80" as="geometry"/>
                </mxCell>
                <mxCell id="24" value="" style="endArrow=none;dashed=1;html=1;dashPattern=1 3;strokeWidth=2;" parent="1" source="9" edge="1">
                    <mxGeometry width="50" height="50" relative="1" as="geometry">
                        <mxPoint x="350" y="390" as="sourcePoint"/>
                        <mxPoint x="580" y="120" as="targetPoint"/>
                    </mxGeometry>
                </mxCell>
                <mxCell id="25" value="" style="endArrow=none;dashed=1;html=1;dashPattern=1 3;strokeWidth=2;exitX=0.942;exitY=0.238;exitDx=0;exitDy=0;exitPerimeter=0;" parent="1" source="9" edge="1">
                    <mxGeometry width="50" height="50" relative="1" as="geometry">
                        <mxPoint x="390" y="390" as="sourcePoint"/>
                        <mxPoint x="580" y="230" as="targetPoint"/>
                    </mxGeometry>
                </mxCell>
                <mxCell id="26" value="" style="endArrow=none;dashed=1;html=1;dashPattern=1 3;strokeWidth=2;exitX=1;exitY=0.5;exitDx=0;exitDy=0;" parent="1" source="9" target="14" edge="1">
                    <mxGeometry width="50" height="50" relative="1" as="geometry">
                        <mxPoint x="350" y="380" as="sourcePoint"/>
                        <mxPoint x="600" y="70" as="targetPoint"/>
                        <Array as="points">
                            <mxPoint x="480" y="380"/>
                        </Array>
                    </mxGeometry>
                </mxCell>
                <mxCell id="27" value="" style="endArrow=none;dashed=1;html=1;dashPattern=1 3;strokeWidth=2;exitX=1;exitY=1;exitDx=0;exitDy=0;entryX=0;entryY=0.375;entryDx=0;entryDy=0;entryPerimeter=0;" parent="1" source="9" target="15" edge="1">
                    <mxGeometry width="50" height="50" relative="1" as="geometry">
                        <mxPoint x="360" y="390" as="sourcePoint"/>
                        <mxPoint x="610" y="80" as="targetPoint"/>
                    </mxGeometry>
                </mxCell>
                <mxCell id="28" value="" style="endArrow=none;dashed=1;html=1;dashPattern=1 3;strokeWidth=2;exitX=0.658;exitY=0.988;exitDx=0;exitDy=0;exitPerimeter=0;" parent="1" source="9" target="17" edge="1">
                    <mxGeometry width="50" height="50" relative="1" as="geometry">
                        <mxPoint x="370" y="400" as="sourcePoint"/>
                        <mxPoint x="620" y="90" as="targetPoint"/>
                    </mxGeometry>
                </mxCell>
                <mxCell id="29" value="" style="endArrow=none;dashed=1;html=1;dashPattern=1 3;strokeWidth=2;entryX=0;entryY=0.375;entryDx=0;entryDy=0;entryPerimeter=0;" parent="1" target="18" edge="1">
                    <mxGeometry width="50" height="50" relative="1" as="geometry">
                        <mxPoint x="340" y="450" as="sourcePoint"/>
                        <mxPoint x="520" y="604" as="targetPoint"/>
                    </mxGeometry>
                </mxCell>
                <mxCell id="30" value="" style="endArrow=none;dashed=1;html=1;dashPattern=1 3;strokeWidth=2;exitX=0.442;exitY=1.038;exitDx=0;exitDy=0;exitPerimeter=0;" parent="1" source="9" target="19" edge="1">
                    <mxGeometry width="50" height="50" relative="1" as="geometry">
                        <mxPoint x="280" y="470" as="sourcePoint"/>
                        <mxPoint x="620" y="620" as="targetPoint"/>
                    </mxGeometry>
                </mxCell>
                <mxCell id="31" value="" style="endArrow=none;dashed=1;html=1;dashPattern=1 3;strokeWidth=2;exitX=0.208;exitY=0.888;exitDx=0;exitDy=0;exitPerimeter=0;entryX=0.25;entryY=0.025;entryDx=0;entryDy=0;entryPerimeter=0;" parent="1" source="9" target="20" edge="1">
                    <mxGeometry width="50" height="50" relative="1" as="geometry">
                        <mxPoint x="215" y="450" as="sourcePoint"/>
                        <mxPoint x="470" y="760" as="targetPoint"/>
                    </mxGeometry>
                </mxCell>
                <mxCell id="32" value="" style="endArrow=none;dashed=1;html=1;dashPattern=1 3;strokeWidth=2;exitX=0.408;exitY=1;exitDx=0;exitDy=0;exitPerimeter=0;" parent="1" source="9" edge="1">
                    <mxGeometry width="50" height="50" relative="1" as="geometry">
                        <mxPoint x="315" y="474" as="sourcePoint"/>
                        <mxPoint x="590" y="800" as="targetPoint"/>
                    </mxGeometry>
                </mxCell>
                <mxCell id="33" value="" style="endArrow=none;dashed=1;html=1;dashPattern=1 3;strokeWidth=2;entryX=0.5;entryY=0;entryDx=0;entryDy=0;exitX=0.092;exitY=0.838;exitDx=0;exitDy=0;exitPerimeter=0;" parent="1" source="9" target="16" edge="1">
                    <mxGeometry width="50" height="50" relative="1" as="geometry">
                        <mxPoint x="295" y="451" as="sourcePoint"/>
                        <mxPoint x="490" y="782" as="targetPoint"/>
                    </mxGeometry>
                </mxCell>
                <mxCell id="34" value="" style="endArrow=none;dashed=1;html=1;entryX=0.017;entryY=0.663;entryDx=0;entryDy=0;entryPerimeter=0;" parent="1" target="22" edge="1">
                    <mxGeometry width="50" height="50" relative="1" as="geometry">
                        <mxPoint x="690" y="835" as="sourcePoint"/>
                        <mxPoint x="740" y="785" as="targetPoint"/>
                    </mxGeometry>
                </mxCell>
                <mxCell id="37" value="" style="endArrow=none;dashed=1;html=1;entryX=0;entryY=0.5;entryDx=0;entryDy=0;" parent="1" target="21" edge="1">
                    <mxGeometry width="50" height="50" relative="1" as="geometry">
                        <mxPoint x="660" y="226" as="sourcePoint"/>
                        <mxPoint x="800" y="210" as="targetPoint"/>
                    </mxGeometry>
                </mxCell>
                <mxCell id="atZCeVP1s1SVEvaX3nQm-38" value="use case client" style="text;html=1;align=center;verticalAlign=middle;resizable=0;points=[];autosize=1;strokeColor=none;fillColor=none;" parent="1" vertex="1">
                    <mxGeometry x="130" y="150" width="100" height="30" as="geometry"/>
                </mxCell>
                <mxCell id="atZCeVP1s1SVEvaX3nQm-39" value="&amp;lt;i&amp;gt;" style="text;html=1;align=center;verticalAlign=middle;resizable=0;points=[];autosize=1;strokeColor=none;fillColor=none;" parent="1" vertex="1">
                    <mxGeometry x="310" y="318" width="40" height="30" as="geometry"/>
                </mxCell>
                <mxCell id="atZCeVP1s1SVEvaX3nQm-40" value="&lt;span style=&quot;font-family: monospace; font-size: 0px; text-align: start;&quot;&gt;%3CmxGraphModel%3E%3Croot%3E%3CmxCell%20id%3D%220%22%2F%3E%3CmxCell%20id%3D%221%22%20parent%3D%220%22%2F%3E%3CmxCell%20id%3D%222%22%20value%3D%22%26amp%3Blt%3Bi%26amp%3Bgt%3B%22%20style%3D%22text%3Bhtml%3D1%3Balign%3Dcenter%3BverticalAlign%3Dmiddle%3Bresizable%3D0%3Bpoints%3D%5B%5D%3Bautosize%3D1%3BstrokeColor%3Dnone%3BfillColor%3Dnone%3B%22%20vertex%3D%221%22%20parent%3D%221%22%3E%3CmxGeometry%20x%3D%22310%22%20y%3D%22318%22%20width%3D%2240%22%20height%3D%2230%22%20as%3D%22geometry%22%2F%3E%3C%2FmxCell%3E%3C%2Froot%3E%3C%2FmxGraphModel%3E&lt;/span&gt;&lt;span style=&quot;font-family: monospace; font-size: 0px; text-align: start;&quot;&gt;%3CmxGraphModel%3E%3Croot%3E%3CmxCell%20id%3D%220%22%2F%3E%3CmxCell%20id%3D%221%22%20parent%3D%220%22%2F%3E%3CmxCell%20id%3D%222%22%20value%3D%22%26amp%3Blt%3Bi%26amp%3Bgt%3B%22%20style%3D%22text%3Bhtml%3D1%3Balign%3Dcenter%3BverticalAlign%3Dmiddle%3Bresizable%3D0%3Bpoints%3D%5B%5D%3Bautosize%3D1%3BstrokeColor%3Dnone%3BfillColor%3Dnone%3B%22%20vertex%3D%221%22%20parent%3D%221%22%3E%3CmxGeometry%20x%3D%22310%22%20y%3D%22318%22%20width%3D%2240%22%20height%3D%2230%22%20as%3D%22geometry%22%2F%3E%3C%2FmxCell%3E%3C%2Froot%3E%3C%2FmxGraphModel%3E&lt;/span&gt;" style="text;html=1;align=center;verticalAlign=middle;resizable=0;points=[];autosize=1;strokeColor=none;fillColor=none;" parent="1" vertex="1">
                    <mxGeometry x="370" y="358" width="20" height="30" as="geometry"/>
                </mxCell>
                <mxCell id="atZCeVP1s1SVEvaX3nQm-41" value="&amp;lt;i&amp;gt;" style="text;html=1;align=center;verticalAlign=middle;resizable=0;points=[];autosize=1;strokeColor=none;fillColor=none;" parent="1" vertex="1">
                    <mxGeometry x="330" y="340" width="40" height="30" as="geometry"/>
                </mxCell>
                <mxCell id="atZCeVP1s1SVEvaX3nQm-42" value="&amp;lt;i&amp;gt;" style="text;html=1;align=center;verticalAlign=middle;resizable=0;points=[];autosize=1;strokeColor=none;fillColor=none;" parent="1" vertex="1">
                    <mxGeometry x="360" y="358" width="40" height="30" as="geometry"/>
                </mxCell>
                <mxCell id="atZCeVP1s1SVEvaX3nQm-43" value="&amp;lt;i&amp;gt;" style="text;html=1;align=center;verticalAlign=middle;resizable=0;points=[];autosize=1;strokeColor=none;fillColor=none;" parent="1" vertex="1">
                    <mxGeometry x="370" y="380" width="40" height="30" as="geometry"/>
                </mxCell>
                <mxCell id="atZCeVP1s1SVEvaX3nQm-44" value="&amp;lt;i&amp;gt;" style="text;html=1;align=center;verticalAlign=middle;resizable=0;points=[];autosize=1;strokeColor=none;fillColor=none;" parent="1" vertex="1">
                    <mxGeometry x="370" y="410" width="40" height="30" as="geometry"/>
                </mxCell>
                <mxCell id="atZCeVP1s1SVEvaX3nQm-45" value="&amp;lt;i&amp;gt;" style="text;html=1;align=center;verticalAlign=middle;resizable=0;points=[];autosize=1;strokeColor=none;fillColor=none;" parent="1" vertex="1">
                    <mxGeometry x="350" y="440" width="40" height="30" as="geometry"/>
                </mxCell>
                <mxCell id="atZCeVP1s1SVEvaX3nQm-46" value="&amp;lt;i&amp;gt;" style="text;html=1;align=center;verticalAlign=middle;resizable=0;points=[];autosize=1;strokeColor=none;fillColor=none;" parent="1" vertex="1">
                    <mxGeometry x="240" y="430" width="40" height="30" as="geometry"/>
                </mxCell>
                <mxCell id="atZCeVP1s1SVEvaX3nQm-47" value="&amp;lt;i&amp;gt;" style="text;html=1;align=center;verticalAlign=middle;resizable=0;points=[];autosize=1;strokeColor=none;fillColor=none;" parent="1" vertex="1">
                    <mxGeometry x="280" y="450" width="40" height="30" as="geometry"/>
                </mxCell>
                <mxCell id="atZCeVP1s1SVEvaX3nQm-48" value="&amp;lt;i&amp;gt;" style="text;html=1;align=center;verticalAlign=middle;resizable=0;points=[];autosize=1;strokeColor=none;fillColor=none;" parent="1" vertex="1">
                    <mxGeometry x="310" y="450" width="40" height="30" as="geometry"/>
                </mxCell>
                <mxCell id="atZCeVP1s1SVEvaX3nQm-49" value="&amp;lt;i&amp;gt;" style="text;html=1;align=center;verticalAlign=middle;resizable=0;points=[];autosize=1;strokeColor=none;fillColor=none;" parent="1" vertex="1">
                    <mxGeometry x="310" y="480" width="40" height="30" as="geometry"/>
                </mxCell>
                <mxCell id="atZCeVP1s1SVEvaX3nQm-51" value="&amp;lt;e&amp;gt;" style="text;html=1;align=center;verticalAlign=middle;resizable=0;points=[];autosize=1;strokeColor=none;fillColor=none;" parent="1" vertex="1">
                    <mxGeometry x="780" y="178" width="40" height="30" as="geometry"/>
                </mxCell>
                <mxCell id="atZCeVP1s1SVEvaX3nQm-52" value="&amp;lt;e&amp;gt;" style="text;html=1;align=center;verticalAlign=middle;resizable=0;points=[];autosize=1;strokeColor=none;fillColor=none;" parent="1" vertex="1">
                    <mxGeometry x="780" y="798" width="40" height="30" as="geometry"/>
                </mxCell>
            </root>
        </mxGraphModel>
    </diagram>
    <diagram id="IBrx0VIdG47mJEKYxQeF" name="Page-2">
        <mxGraphModel dx="820" dy="475" grid="1" gridSize="10" guides="1" tooltips="1" connect="1" arrows="1" fold="1" page="1" pageScale="1" pageWidth="850" pageHeight="1100" math="0" shadow="0">
            <root>
                <mxCell id="0"/>
                <mxCell id="1" parent="0"/>
                <mxCell id="w669qeD14PpdmfwLLuRU-3" value="Actor" style="shape=umlActor;verticalLabelPosition=bottom;verticalAlign=top;html=1;outlineConnect=0;" parent="1" vertex="1">
                    <mxGeometry x="60" y="240" width="110" height="140" as="geometry"/>
                </mxCell>
                <mxCell id="DZkv_Okh5X64UIP7GQjf-1" value="use case patissier" style="text;html=1;align=center;verticalAlign=middle;resizable=0;points=[];autosize=1;strokeColor=none;fillColor=none;" parent="1" vertex="1">
                    <mxGeometry x="170" y="118" width="120" height="30" as="geometry"/>
                </mxCell>
                <mxCell id="DZkv_Okh5X64UIP7GQjf-2" value="se connecter" style="ellipse;whiteSpace=wrap;html=1;" parent="1" vertex="1">
                    <mxGeometry x="300" y="290" width="120" height="80" as="geometry"/>
                </mxCell>
                <mxCell id="DZkv_Okh5X64UIP7GQjf-3" value="" style="endArrow=classic;html=1;" parent="1" edge="1">
                    <mxGeometry width="50" height="50" relative="1" as="geometry">
                        <mxPoint x="170" y="331.2307692307693" as="sourcePoint"/>
                        <mxPoint x="290" y="330" as="targetPoint"/>
                    </mxGeometry>
                </mxCell>
                <mxCell id="DZkv_Okh5X64UIP7GQjf-4" value="gerr son profil" style="ellipse;whiteSpace=wrap;html=1;" parent="1" vertex="1">
                    <mxGeometry x="480" y="20" width="120" height="80" as="geometry"/>
                </mxCell>
                <mxCell id="DZkv_Okh5X64UIP7GQjf-5" value="voir les commandes des clients&amp;nbsp;" style="ellipse;whiteSpace=wrap;html=1;" parent="1" vertex="1">
                    <mxGeometry x="520" y="148" width="120" height="80" as="geometry"/>
                </mxCell>
                <mxCell id="DZkv_Okh5X64UIP7GQjf-6" value="preparer les produits&amp;nbsp;" style="ellipse;whiteSpace=wrap;html=1;" parent="1" vertex="1">
                    <mxGeometry x="530" y="260" width="120" height="80" as="geometry"/>
                </mxCell>
                <mxCell id="DZkv_Okh5X64UIP7GQjf-7" value="mettre a jour le statut de la commande" style="ellipse;whiteSpace=wrap;html=1;" parent="1" vertex="1">
                    <mxGeometry x="520" y="370" width="120" height="80" as="geometry"/>
                </mxCell>
                <mxCell id="DZkv_Okh5X64UIP7GQjf-8" value="notifier les clients&amp;nbsp;" style="ellipse;whiteSpace=wrap;html=1;" parent="1" vertex="1">
                    <mxGeometry x="530" y="480" width="120" height="80" as="geometry"/>
                </mxCell>
                <mxCell id="DZkv_Okh5X64UIP7GQjf-9" value="se deconnecter" style="ellipse;whiteSpace=wrap;html=1;" parent="1" vertex="1">
                    <mxGeometry x="520" y="570" width="120" height="80" as="geometry"/>
                </mxCell>
                <mxCell id="DZkv_Okh5X64UIP7GQjf-10" value="" style="endArrow=none;dashed=1;html=1;" parent="1" edge="1">
                    <mxGeometry width="50" height="50" relative="1" as="geometry">
                        <mxPoint x="500" y="590" as="sourcePoint"/>
                        <mxPoint x="360" y="380" as="targetPoint"/>
                    </mxGeometry>
                </mxCell>
                <mxCell id="DZkv_Okh5X64UIP7GQjf-11" value="" style="endArrow=none;dashed=1;html=1;" parent="1" target="DZkv_Okh5X64UIP7GQjf-2" edge="1">
                    <mxGeometry width="50" height="50" relative="1" as="geometry">
                        <mxPoint x="520" y="500" as="sourcePoint"/>
                        <mxPoint x="470" y="490" as="targetPoint"/>
                    </mxGeometry>
                </mxCell>
                <mxCell id="DZkv_Okh5X64UIP7GQjf-12" value="" style="endArrow=none;dashed=1;html=1;" parent="1" edge="1">
                    <mxGeometry width="50" height="50" relative="1" as="geometry">
                        <mxPoint x="430" y="330" as="sourcePoint"/>
                        <mxPoint x="520" y="300" as="targetPoint"/>
                    </mxGeometry>
                </mxCell>
                <mxCell id="DZkv_Okh5X64UIP7GQjf-13" value="" style="endArrow=none;dashed=1;html=1;" parent="1" source="DZkv_Okh5X64UIP7GQjf-2" edge="1">
                    <mxGeometry width="50" height="50" relative="1" as="geometry">
                        <mxPoint x="420" y="360" as="sourcePoint"/>
                        <mxPoint x="510" y="220" as="targetPoint"/>
                    </mxGeometry>
                </mxCell>
                <mxCell id="DZkv_Okh5X64UIP7GQjf-14" value="" style="endArrow=none;dashed=1;html=1;" parent="1" edge="1">
                    <mxGeometry width="50" height="50" relative="1" as="geometry">
                        <mxPoint x="370" y="280" as="sourcePoint"/>
                        <mxPoint x="470" y="90" as="targetPoint"/>
                    </mxGeometry>
                </mxCell>
                <mxCell id="DZkv_Okh5X64UIP7GQjf-15" value="&amp;lt;i&amp;gt;" style="text;html=1;align=center;verticalAlign=middle;resizable=0;points=[];autosize=1;strokeColor=none;fillColor=none;" parent="1" vertex="1">
                    <mxGeometry x="330" y="238" width="40" height="30" as="geometry"/>
                </mxCell>
                <mxCell id="DZkv_Okh5X64UIP7GQjf-16" value="&amp;lt;i&amp;gt;" style="text;html=1;align=center;verticalAlign=middle;resizable=0;points=[];autosize=1;strokeColor=none;fillColor=none;" parent="1" vertex="1">
                    <mxGeometry x="380" y="268" width="40" height="30" as="geometry"/>
                </mxCell>
                <mxCell id="DZkv_Okh5X64UIP7GQjf-17" value="&amp;lt;i&amp;gt;" style="text;html=1;align=center;verticalAlign=middle;resizable=0;points=[];autosize=1;strokeColor=none;fillColor=none;" parent="1" vertex="1">
                    <mxGeometry x="405" y="290" width="40" height="30" as="geometry"/>
                </mxCell>
                <mxCell id="DZkv_Okh5X64UIP7GQjf-18" value="&amp;lt;i&amp;gt;" style="text;html=1;align=center;verticalAlign=middle;resizable=0;points=[];autosize=1;strokeColor=none;fillColor=none;" parent="1" vertex="1">
                    <mxGeometry x="400" y="350" width="40" height="30" as="geometry"/>
                </mxCell>
                <mxCell id="DZkv_Okh5X64UIP7GQjf-19" value="&amp;lt;i&amp;gt;" style="text;html=1;align=center;verticalAlign=middle;resizable=0;points=[];autosize=1;strokeColor=none;fillColor=none;" parent="1" vertex="1">
                    <mxGeometry x="350" y="370" width="40" height="30" as="geometry"/>
                </mxCell>
            </root>
        </mxGraphModel>
    </diagram>
    <diagram id="NPjETiKb42xJxq_ESLC1" name="Page-3">
        <mxGraphModel dx="820" dy="1575" grid="1" gridSize="10" guides="1" tooltips="1" connect="1" arrows="1" fold="1" page="1" pageScale="1" pageWidth="850" pageHeight="1100" math="0" shadow="0">
            <root>
                <mxCell id="0"/>
                <mxCell id="1" parent="0"/>
                <mxCell id="a-cgq9VIx4zkPhxA3nI9-1" value="Actor" style="shape=umlActor;verticalLabelPosition=bottom;verticalAlign=top;html=1;outlineConnect=0;" parent="1" vertex="1">
                    <mxGeometry x="60" y="100" width="100" height="160" as="geometry"/>
                </mxCell>
                <mxCell id="a-cgq9VIx4zkPhxA3nI9-2" value="use case admin" style="text;html=1;align=center;verticalAlign=middle;resizable=0;points=[];autosize=1;strokeColor=none;fillColor=none;" parent="1" vertex="1">
                    <mxGeometry x="195" y="-2" width="110" height="30" as="geometry"/>
                </mxCell>
                <mxCell id="a-cgq9VIx4zkPhxA3nI9-3" value="" style="endArrow=classic;html=1;" parent="1" source="a-cgq9VIx4zkPhxA3nI9-1" edge="1">
                    <mxGeometry width="50" height="50" relative="1" as="geometry">
                        <mxPoint x="390" y="210" as="sourcePoint"/>
                        <mxPoint x="280" y="180" as="targetPoint"/>
                    </mxGeometry>
                </mxCell>
                <mxCell id="a-cgq9VIx4zkPhxA3nI9-4" value="se connecter" style="ellipse;whiteSpace=wrap;html=1;" parent="1" vertex="1">
                    <mxGeometry x="290" y="158" width="120" height="80" as="geometry"/>
                </mxCell>
                <mxCell id="a-cgq9VIx4zkPhxA3nI9-5" value="gerer son profil" style="ellipse;whiteSpace=wrap;html=1;" parent="1" vertex="1">
                    <mxGeometry x="560" y="-90" width="120" height="80" as="geometry"/>
                </mxCell>
                <mxCell id="a-cgq9VIx4zkPhxA3nI9-6" value="gerer les clients&amp;nbsp;" style="ellipse;whiteSpace=wrap;html=1;" parent="1" vertex="1">
                    <mxGeometry x="570" y="20" width="120" height="80" as="geometry"/>
                </mxCell>
                <mxCell id="a-cgq9VIx4zkPhxA3nI9-7" value="gerer les patissiers" style="ellipse;whiteSpace=wrap;html=1;" parent="1" vertex="1">
                    <mxGeometry x="590" y="120" width="120" height="80" as="geometry"/>
                </mxCell>
                <mxCell id="a-cgq9VIx4zkPhxA3nI9-10" value="gerer les commandes" style="ellipse;whiteSpace=wrap;html=1;" parent="1" vertex="1">
                    <mxGeometry x="590" y="220" width="120" height="80" as="geometry"/>
                </mxCell>
                <mxCell id="a-cgq9VIx4zkPhxA3nI9-11" value="se deconnecter" style="ellipse;whiteSpace=wrap;html=1;" parent="1" vertex="1">
                    <mxGeometry x="60" y="460" width="120" height="80" as="geometry"/>
                </mxCell>
                <mxCell id="a-cgq9VIx4zkPhxA3nI9-12" value="generer l&#39;inventaire" style="ellipse;whiteSpace=wrap;html=1;" parent="1" vertex="1">
                    <mxGeometry x="230" y="530" width="120" height="80" as="geometry"/>
                </mxCell>
                <mxCell id="a-cgq9VIx4zkPhxA3nI9-13" value="gerer les chat" style="ellipse;whiteSpace=wrap;html=1;" parent="1" vertex="1">
                    <mxGeometry x="590" y="350" width="120" height="80" as="geometry"/>
                </mxCell>
                <mxCell id="a-cgq9VIx4zkPhxA3nI9-14" value="gerer les stocks" style="ellipse;whiteSpace=wrap;html=1;" parent="1" vertex="1">
                    <mxGeometry x="560" y="450" width="120" height="80" as="geometry"/>
                </mxCell>
                <mxCell id="a-cgq9VIx4zkPhxA3nI9-15" value="gerer les stocks" style="ellipse;whiteSpace=wrap;html=1;" parent="1" vertex="1">
                    <mxGeometry x="410" y="510" width="120" height="80" as="geometry"/>
                </mxCell>
                <mxCell id="a-cgq9VIx4zkPhxA3nI9-18" value="" style="endArrow=none;dashed=1;html=1;" parent="1" source="a-cgq9VIx4zkPhxA3nI9-4" target="a-cgq9VIx4zkPhxA3nI9-5" edge="1">
                    <mxGeometry width="50" height="50" relative="1" as="geometry">
                        <mxPoint x="400" y="260" as="sourcePoint"/>
                        <mxPoint x="450" y="210" as="targetPoint"/>
                    </mxGeometry>
                </mxCell>
                <mxCell id="a-cgq9VIx4zkPhxA3nI9-19" value="" style="endArrow=none;dashed=1;html=1;entryX=0;entryY=0.625;entryDx=0;entryDy=0;entryPerimeter=0;" parent="1" target="a-cgq9VIx4zkPhxA3nI9-6" edge="1">
                    <mxGeometry width="50" height="50" relative="1" as="geometry">
                        <mxPoint x="395" y="176" as="sourcePoint"/>
                        <mxPoint x="595" y="-8" as="targetPoint"/>
                    </mxGeometry>
                </mxCell>
                <mxCell id="a-cgq9VIx4zkPhxA3nI9-20" value="" style="endArrow=none;dashed=1;html=1;entryX=0;entryY=0.5;entryDx=0;entryDy=0;" parent="1" source="a-cgq9VIx4zkPhxA3nI9-33" target="a-cgq9VIx4zkPhxA3nI9-7" edge="1">
                    <mxGeometry width="50" height="50" relative="1" as="geometry">
                        <mxPoint x="405" y="186" as="sourcePoint"/>
                        <mxPoint x="605" y="2" as="targetPoint"/>
                    </mxGeometry>
                </mxCell>
                <mxCell id="a-cgq9VIx4zkPhxA3nI9-21" value="" style="endArrow=none;dashed=1;html=1;" parent="1" target="a-cgq9VIx4zkPhxA3nI9-10" edge="1">
                    <mxGeometry width="50" height="50" relative="1" as="geometry">
                        <mxPoint x="415" y="196" as="sourcePoint"/>
                        <mxPoint x="615" y="12" as="targetPoint"/>
                    </mxGeometry>
                </mxCell>
                <mxCell id="a-cgq9VIx4zkPhxA3nI9-22" value="" style="endArrow=none;dashed=1;html=1;exitX=1.008;exitY=0.6;exitDx=0;exitDy=0;exitPerimeter=0;" parent="1" source="a-cgq9VIx4zkPhxA3nI9-4" target="a-cgq9VIx4zkPhxA3nI9-13" edge="1">
                    <mxGeometry width="50" height="50" relative="1" as="geometry">
                        <mxPoint x="425" y="206" as="sourcePoint"/>
                        <mxPoint x="625" y="22" as="targetPoint"/>
                    </mxGeometry>
                </mxCell>
                <mxCell id="a-cgq9VIx4zkPhxA3nI9-23" value="" style="endArrow=none;dashed=1;html=1;exitX=1;exitY=1;exitDx=0;exitDy=0;" parent="1" source="a-cgq9VIx4zkPhxA3nI9-4" target="a-cgq9VIx4zkPhxA3nI9-14" edge="1">
                    <mxGeometry width="50" height="50" relative="1" as="geometry">
                        <mxPoint x="435" y="216" as="sourcePoint"/>
                        <mxPoint x="635" y="32" as="targetPoint"/>
                    </mxGeometry>
                </mxCell>
                <mxCell id="a-cgq9VIx4zkPhxA3nI9-24" value="" style="endArrow=none;dashed=1;html=1;" parent="1" edge="1">
                    <mxGeometry width="50" height="50" relative="1" as="geometry">
                        <mxPoint x="330" y="240" as="sourcePoint"/>
                        <mxPoint x="450" y="500" as="targetPoint"/>
                    </mxGeometry>
                </mxCell>
                <mxCell id="a-cgq9VIx4zkPhxA3nI9-25" value="" style="endArrow=none;dashed=1;html=1;exitX=0;exitY=1;exitDx=0;exitDy=0;" parent="1" source="a-cgq9VIx4zkPhxA3nI9-4" edge="1">
                    <mxGeometry width="50" height="50" relative="1" as="geometry">
                        <mxPoint x="455" y="236" as="sourcePoint"/>
                        <mxPoint x="320" y="520" as="targetPoint"/>
                    </mxGeometry>
                </mxCell>
                <mxCell id="a-cgq9VIx4zkPhxA3nI9-26" value="" style="endArrow=none;dashed=1;html=1;exitX=-0.008;exitY=0.625;exitDx=0;exitDy=0;exitPerimeter=0;entryX=0.667;entryY=0;entryDx=0;entryDy=0;entryPerimeter=0;" parent="1" source="a-cgq9VIx4zkPhxA3nI9-4" target="a-cgq9VIx4zkPhxA3nI9-11" edge="1">
                    <mxGeometry width="50" height="50" relative="1" as="geometry">
                        <mxPoint x="465" y="246" as="sourcePoint"/>
                        <mxPoint x="665" y="62" as="targetPoint"/>
                    </mxGeometry>
                </mxCell>
                <mxCell id="a-cgq9VIx4zkPhxA3nI9-27" value="&amp;lt;i&amp;gt;" style="text;html=1;align=center;verticalAlign=middle;resizable=0;points=[];autosize=1;strokeColor=none;fillColor=none;" parent="1" vertex="1">
                    <mxGeometry x="370" y="118" width="40" height="30" as="geometry"/>
                </mxCell>
                <mxCell id="a-cgq9VIx4zkPhxA3nI9-28" value="&amp;lt;i&amp;gt;" style="text;html=1;align=center;verticalAlign=middle;resizable=0;points=[];autosize=1;strokeColor=none;fillColor=none;" parent="1" vertex="1">
                    <mxGeometry x="260" y="200" width="40" height="30" as="geometry"/>
                </mxCell>
                <mxCell id="a-cgq9VIx4zkPhxA3nI9-29" value="&amp;lt;i&amp;gt;" style="text;html=1;align=center;verticalAlign=middle;resizable=0;points=[];autosize=1;strokeColor=none;fillColor=none;" parent="1" vertex="1">
                    <mxGeometry x="270" y="220" width="40" height="30" as="geometry"/>
                </mxCell>
                <mxCell id="a-cgq9VIx4zkPhxA3nI9-30" value="&amp;lt;i&amp;gt;" style="text;html=1;align=center;verticalAlign=middle;resizable=0;points=[];autosize=1;strokeColor=none;fillColor=none;" parent="1" vertex="1">
                    <mxGeometry x="330" y="238" width="40" height="30" as="geometry"/>
                </mxCell>
                <mxCell id="a-cgq9VIx4zkPhxA3nI9-31" value="&amp;lt;i&amp;gt;" style="text;html=1;align=center;verticalAlign=middle;resizable=0;points=[];autosize=1;strokeColor=none;fillColor=none;" parent="1" vertex="1">
                    <mxGeometry x="385" y="220" width="40" height="30" as="geometry"/>
                </mxCell>
                <mxCell id="a-cgq9VIx4zkPhxA3nI9-32" value="&amp;lt;i&amp;gt;" style="text;html=1;align=center;verticalAlign=middle;resizable=0;points=[];autosize=1;strokeColor=none;fillColor=none;" parent="1" vertex="1">
                    <mxGeometry x="410" y="180" width="40" height="30" as="geometry"/>
                </mxCell>
                <mxCell id="a-cgq9VIx4zkPhxA3nI9-34" value="" style="endArrow=none;dashed=1;html=1;entryX=0;entryY=0.5;entryDx=0;entryDy=0;" parent="1" target="a-cgq9VIx4zkPhxA3nI9-33" edge="1">
                    <mxGeometry width="50" height="50" relative="1" as="geometry">
                        <mxPoint x="405" y="186" as="sourcePoint"/>
                        <mxPoint x="590" y="160" as="targetPoint"/>
                    </mxGeometry>
                </mxCell>
                <mxCell id="a-cgq9VIx4zkPhxA3nI9-33" value="&amp;lt;i&amp;gt;" style="text;html=1;align=center;verticalAlign=middle;resizable=0;points=[];autosize=1;strokeColor=none;fillColor=none;" parent="1" vertex="1">
                    <mxGeometry x="405" y="158" width="40" height="30" as="geometry"/>
                </mxCell>
                <mxCell id="a-cgq9VIx4zkPhxA3nI9-35" value="&amp;lt;i&amp;gt;" style="text;html=1;align=center;verticalAlign=middle;resizable=0;points=[];autosize=1;strokeColor=none;fillColor=none;" parent="1" vertex="1">
                    <mxGeometry x="390" y="140" width="40" height="30" as="geometry"/>
                </mxCell>
            </root>
        </mxGraphModel>
    </diagram>
    <diagram id="9xECfC-YKpyq2M0_rzH0" name="Page-4">
        <mxGraphModel dx="820" dy="475" grid="1" gridSize="10" guides="1" tooltips="1" connect="1" arrows="1" fold="1" page="1" pageScale="1" pageWidth="850" pageHeight="1100" math="0" shadow="0">
            <root>
                <mxCell id="0"/>
                <mxCell id="1" parent="0"/>
                <mxCell id="TEf8w2AERwLvWOoJsd5s-1" value="List" style="swimlane;fontStyle=0;childLayout=stackLayout;horizontal=1;startSize=30;horizontalStack=0;resizeParent=1;resizeParentMax=0;resizeLast=0;collapsible=1;marginBottom=0;whiteSpace=wrap;html=1;" vertex="1" parent="1">
                    <mxGeometry x="100" y="290" width="140" height="90" as="geometry"/>
                </mxCell>
                <mxCell id="TEf8w2AERwLvWOoJsd5s-3" value="Item 2" style="text;strokeColor=none;fillColor=none;align=left;verticalAlign=middle;spacingLeft=4;spacingRight=4;overflow=hidden;points=[[0,0.5],[1,0.5]];portConstraint=eastwest;rotatable=0;whiteSpace=wrap;html=1;" vertex="1" parent="TEf8w2AERwLvWOoJsd5s-1">
                    <mxGeometry y="30" width="140" height="30" as="geometry"/>
                </mxCell>
                <mxCell id="TEf8w2AERwLvWOoJsd5s-4" value="Item 3" style="text;strokeColor=none;fillColor=none;align=left;verticalAlign=middle;spacingLeft=4;spacingRight=4;overflow=hidden;points=[[0,0.5],[1,0.5]];portConstraint=eastwest;rotatable=0;whiteSpace=wrap;html=1;" vertex="1" parent="TEf8w2AERwLvWOoJsd5s-1">
                    <mxGeometry y="60" width="140" height="30" as="geometry"/>
                </mxCell>
            </root>
        </mxGraphModel>
    </diagram>
</mxfile>